<?xml version="1.0" encoding="UTF-8"?>
<svg id="Calque_2" data-name="Calque 2" xmlns="http://www.w3.org/2000/svg" viewBox="0 0 1736.72 678.21">
  <defs>
    <style>
      .cls-1 {
        fill: red;
      }
    </style>
  </defs>
  <g id="Calque_1-2" data-name="Calque 1">
    <g>
      <polygon class="cls-1" points="797.07 180.05 830.61 102.27 545.46 109.26 423.79 391.33 515.09 389.09 549.32 309.73 719.87 305.55 753.42 227.77 582.88 231.95 603.21 184.8 797.07 180.05"/>
      <path class="cls-1" d="m1149.14,261.22l-97.12,2.38c-15.34,24.88-56.87,44.55-105.06,45.73-54.78,1.34-77.75-26.48-59.46-68.91,18.13-42.03,65.68-71.19,120.46-72.53,48.17-1.18,73.45,16.88,67.61,41.11l97.13-2.38c23.79-72.11-28.01-118.65-131.35-116.12-111.89,2.74-210.38,62.67-249.03,152.25-38.97,90.37,9.21,147.1,121.1,144.36,103.34-2.53,196.82-52.63,235.72-125.89Z"/>
      <path class="cls-1" d="m1291.51,377.66h.02c33.18-18.69,63.76-42.58,91.2-71.26-11.92,2.36-28.04,3.84-50.07,4.38-60.6,1.48-75.64-11.76-66.84-32.18l-94.79,2.32c-26.95,70.12,19.42,96.65,120.49,96.75Z"/>
      <path class="cls-1" d="m1546.84,173.37c5-13.33,6.94-25.28,5.79-35.81-3.92-36.49-44.56-55.96-121.09-56.37-4.83-.04-9.8,0-14.91.13-95.95,2.35-169.49,32.91-194.39,90.66-26.1,60.49,9.4,86.07,113.51,89.74l13.27.46c65.73,2.67,74.68,5.94,67.23,23.23-1.4,3.26-3.23,6.24-5.88,8.91,6.37,1.07,12.21,4.48,16.54,9.72,5.78,6.99,7.97,16.2,5.98,25.32-2.15,9.91-3.5,19.35-4.06,28.36,38.8-15.03,67.18-39.78,83.74-78.17,31.35-72.67-25.64-81.39-117.6-86.52l-15.42-.8c-60.69-2.79-68.8-8.03-62.53-22.56,5.24-12.17,20.69-20.34,70.02-21.55,52.45-1.28,74.31,5.97,65,27.58l94.79-2.32Z"/>
      <polygon class="cls-1" points="569.18 462.18 585.67 423.93 409.1 428.25 366.93 526.01 349.29 566.92 352.13 566.85 361.33 566.63 405.83 565.54 413.74 547.22 422.66 526.53 528.26 523.94 544.76 485.71 439.15 488.3 449.15 465.12 569.18 462.18"/>
      <polygon class="cls-1" points="771.31 453.22 786.05 419.02 609.5 423.35 549.69 562.02 726.25 557.69 740.99 523.51 620.97 526.45 629.45 506.75 744.68 503.93 758.09 472.84 642.87 475.67 651.28 456.16 771.31 453.22"/>
      <path class="cls-1" d="m992.77,456.3c10.8-29.84-17.59-45.15-83.64-43.53-57.84,1.42-100.6,16.24-112.52,43.86-12.49,28.96,10.34,41.05,73.44,42.48l8.02.18c39.87,1.07,45.45,2.61,41.89,10.88-3.09,7.15-11.89,11.45-49.13,12.36-36.52.89-46.34-5.37-42.12-15.15l-57.15,1.4c-13.14,35.3,20.15,47.31,87.82,45.66,62.06-1.52,103.75-13.32,118.44-47.36,14.99-34.77-19.89-38.77-75.73-40.93l-9.34-.32c-36.82-1.15-42-3.62-39-10.59,2.51-5.82,11.38-9.76,41.14-10.49,31.61-.77,45.2,2.62,40.75,12.95l57.13-1.4Z"/>
      <path class="cls-1" d="m1103.68,548.45l27.17-62.96c-3.73-2.94-7.71-5.78-11.93-8.55-10.59-6.92-15.42-20.01-12.01-32.56,3.29-12,13.16-20.1,25.15-20.64,30.05-1.36,59.52-6.5,88.11-15.34l-187.79,4.6-16.49,38.25,74.56-1.83-43.3,100.42,56.52-1.38Z"/>
      <path class="cls-1" d="m1472.86,504.63c9.66-.58,12.52-15.06,4.04-20.48-28.21-18.11-47.27-40.45-57.47-67.23-4.17-10.93-6.86-22.52-8.02-34.82-.57-5.94-.79-12.03-.66-18.28.26-12.12,1.85-24.87,4.75-38.25,2.3-10.69-9.14-18.36-16.19-10.81-18.39,19.71-42.35,41.75-72.36,61.95-9.62,6.49-19.89,12.78-30.8,18.75h-.02c-6.21,3.41-12.63,6.72-19.27,9.88-7.7,3.68-15.31,6.99-22.83,9.97v.02c-7.78,3.11-15.45,5.87-22.98,8.31-37,12.04-70.74,16.65-98.19,17.89-9.75.45-12.73,14.94-4.22,20.51,3.28,2.15,6.43,4.33,9.46,6.61,5.1,3.8,9.85,7.76,14.24,11.91v.02c14.85,14,25.64,29.93,32.48,47.83,8.47,22.24,10.78,47.24,6.81,75.24-.8,5.72-1.87,11.56-3.21,17.54-.48,2.15-.4,4.18.13,6,1.96,7.12,10.33,10.81,15.96,4.9,3.42-3.59,7.02-7.26,10.78-10.96,9.15-8.99,19.3-18.17,30.48-27.26,17.02-13.83,36.43-27.42,58.36-39.74,63.82-35.83,124.37-46.93,168.71-49.5Z"/>
      <path class="cls-1" d="m1736.56,275.23C1727.9,103.38,1380.33-18.77,960.23,2.38c-49.85,2.5-98.47,6.92-145.45,13.06,14.55-1.07,29.23-1.98,44-2.72,198.84-10.02,382.2,10.56,524.43,52.73,10.63-1.03,21.63-1.67,32.99-1.95,74.81-1.83,121.49,11.8,142.73,41.69,8.99,12.63,12.88,27.34,11.68,43.98,62.95,42.97,100.02,93.9,102.83,149.85,4.06,80.87-64.06,158.48-180.2,221.46,153.6-64.84,247.97-152.83,243.32-245.26Z"/>
      <path class="cls-1" d="m.17,389.39c9.08,180.34,373.82,308.52,814.66,286.32,65.6-3.32,129.18-9.76,189.88-18.94,57.83-6.3,113.53-15.04,166.4-25.9-1.03-4.36-1.07-8.99-.05-13.58.82-3.66,1.52-7.25,2.12-10.78-58.03,8.82-118.86,14.99-181.61,18.15-219.58,11.06-419.35-17.03-561.24-70.93l-12.66,29.34-95.74,2.34,29.19-67.7c-82.84-45.28-132.65-102.17-135.87-165.88C207.64,200.38,465.81,60.89,814.78,15.44c-50.07,3.63-98.81,9.1-145.82,16.22C282.83,73.63-8.12,224.78.17,389.39Z"/>
      <path class="cls-1" d="m1287.93,584.96c-12.48,8.27-24.58,17.35-36.22,27.13,93.17-24.34,175.2-55.59,241.54-91.6-60.14,25.42-129.37,47.27-205.28,64.45t-.04.02Z"/>
    </g>
  </g>
</svg>